<svg width="640" height="220" viewBox="0 0 640 220" fill="none" xmlns="http://www.w3.org/2000/svg" role="img" aria-labelledby="title">
  <title id="title">Mist Architect</title>
  <rect width="640" height="220" fill="white"/>
  <path d="M84 146V74H94.8L119.6 127.9L144.2 74H155V146H144.8V95.6L123.3 142H115.7L94.2 95.6V146H84Z" fill="#111111"/>
  <path d="M183.8 146V74H194.2V146H183.8Z" fill="#111111"/>
  <path d="M245.6 147.4C235.4 147.4 226.5 144.1 218.9 137.5L224.2 128.8C231.2 134.7 238.5 137.6 246.1 137.6C250.5 137.6 254 136.7 256.6 134.9C259.3 133 260.6 130.3 260.6 126.9C260.6 123.9 259.4 121.5 257 119.8C254.7 118 250.4 116.2 244.2 114.4C236 112 230 109.1 226.3 105.8C222.7 102.4 220.9 98 220.9 92.6C220.9 86.5 223.3 81.7 228.1 78.1C232.9 74.4 239.2 72.6 247 72.6C255.8 72.6 263.6 75.3 270.4 80.7L265.4 89.2C259.5 84.5 253.2 82.2 246.6 82.2C242.2 82.2 238.7 83.1 236.2 84.9C233.8 86.6 232.6 89.1 232.6 92.2C232.6 95.1 233.7 97.4 236 99.1C238.4 100.8 242.8 102.6 249.3 104.5C257.3 106.9 263.2 109.8 266.8 113.3C270.5 116.8 272.3 121.3 272.3 126.8C272.3 133.2 269.9 138.2 264.9 141.9C260 145.6 253.5 147.4 245.6 147.4Z" fill="#111111"/>
  <path d="M314.7 146V83.9H292.1V74H347.7V83.9H325.1V146H314.7Z" fill="#111111"/>
  <path d="M386 146L414.3 74H424.6L453.1 146H441.8L434.7 127.3H404.2L397.1 146H386ZM407.8 117.8H431.1L419.5 87.1L407.8 117.8Z" fill="#111111"/>
  <path d="M479.6 146V74H504.3C512.2 74 518.5 76.1 523.1 80.4C527.8 84.6 530.1 90.3 530.1 97.4C530.1 102.5 528.8 106.9 526.2 110.7C523.6 114.5 520 117.2 515.4 118.8L533.4 146H521L504.5 120.3H490V146H479.6ZM490 110.9H503.8C508.7 110.9 512.5 109.7 515.3 107.3C518.1 104.9 519.5 101.6 519.5 97.4C519.5 93.1 518.1 89.8 515.3 87.4C512.5 85.1 508.7 83.9 503.8 83.9H490V110.9Z" fill="#111111"/>
  <path d="M96 184H544" stroke="#111111" stroke-width="2"/>
  <path d="M558 74V146H568V74H558Z" fill="#111111"/>
</svg>
